<svg preserveAspectRatio="xMidYMid meet" data-bbox="0.11 5.967 141.965 20.88" xmlns="http://www.w3.org/2000/svg" viewBox="0.11 5.967 141.965 20.88" height="32" width="144" data-type="color" role="presentation" aria-hidden="true">
    <g>
        <path fill="#ffffff" d="M12.405 6.629c-1.2-1.158-1.892-.617-2.765.246L.11 16.407l9.787 9.787c1.276 1.224 1.977.523 2.936-.437l9.351-9.35-2.416-2.416-8.621 8.62-6.205-6.204 8.621-8.621-1.157-1.157Z" data-color="1"></path>
        <path fill="#ffffff" d="m19.767 10.202-8.62 8.621-2.417-2.416 9.532-9.532c.872-.863 1.564-1.404 2.765-.246l9.777 9.778-9.35 9.35c-.96.96-1.66 1.66-2.936.437l-1.167-1.166 8.621-8.621-6.205-6.205Z" data-color="1"></path>
        <path fill="#ffffff" d="M136.245 26.766c-4.204 0-6.238-2.63-6.454-4.881h3.145c.299 1.329 1.709 2.278 3.2 2.223 1.546-.08 2.251-.786 2.251-1.817 0-1.22-1.491-1.68-3.308-2.115-2.278-.57-4.909-1.383-4.909-4.149 0-2.82 2.441-4.61 5.885-4.61 2.739 0 5.505 1.437 5.803 4.583h-3.145c-.272-1.166-1.356-1.736-2.495-1.79-1.275-.081-2.278.407-2.278 1.383 0 1.193 1.573 1.519 3.362 2.007 2.224.624 4.773 1.573 4.773 4.502 0 2.82-2.332 4.664-5.83 4.664Z" data-color="1"></path>
        <path fill="#ffffff" d="M127.618 11.661v14.915h-3.308l-.244-2.006c-1.112 1.355-3.01 2.142-4.827 2.142-3.282 0-5.56-2.36-5.56-5.695v-9.356h3.716v8.922c0 1.736 1.084 2.875 2.874 2.875 1.844 0 3.634-1.14 3.634-2.875v-8.922h3.715Z" data-color="1"></path>
        <path fill="#ffffff" d="M109.69 26.603c-3.065 0-5.614-.406-5.614-4.745v-7.322h-2.468v-2.93h.597c1.871 0 1.871-1.003 1.871-2.386V6.237h3.444v5.18h3.851v3.119h-3.878v7.05c0 1.492.705 2.034 2.197 2.034h1.789v2.983h-1.789Z" data-color="1"></path>
        <path fill="#ffffff" d="M97.542 10.142A1.962 1.962 0 0 1 95.59 8.19c0-1.085.894-1.953 1.952-1.953 1.058 0 1.953.868 1.953 1.953a1.962 1.962 0 0 1-1.953 1.952Zm-1.817 16.434V11.661h3.661v14.915h-3.66Z" data-color="1"></path>
        <path fill="#ffffff" d="M87.66 11.525c3.417 0 5.478 2.007 5.478 5.424v9.627h-3.715V17.41c0-1.708-1.03-2.63-2.847-2.63-1.845 0-3.634 1.084-3.634 2.847v8.95h-3.716V6.236h3.716v7.241c1.084-1.193 2.928-1.953 4.718-1.953Z" data-color="1"></path>
        <path fill="#ffffff" d="M69.782 26.712c-4.338 0-7.132-3.2-7.132-7.62 0-4.448 2.794-7.567 7.133-7.567 5.152 0 6.915 3.336 7.159 5.777H73.66c-.19-1.492-1.68-2.74-3.58-2.74-2.467 0-3.796 1.845-3.796 4.53 0 2.657 1.356 4.556 3.824 4.556 1.871 0 3.281-1.384 3.552-2.848h3.255c-.299 2.55-1.953 5.912-7.133 5.912Z" data-color="1"></path>
        <path fill="#ffffff" d="M61.745 11.498v3.227c-3.444-.054-5.505 1.22-5.505 4.855v6.996h-3.715V11.661h3.444l.244 2.25c.515-1.138 2.17-2.467 5.532-2.413Z" data-color="1"></path>
        <path fill="#ffffff" d="M45.56 22.156h-9.14l-1.681 4.42h-3.824l8.163-20.339h3.932l8.163 20.34h-3.797l-1.817-4.421Zm-8.11-3.064h7.106l-3.498-9.275-3.607 9.274Z" data-color="1"></path>
    </g>
</svg>