<?xml version="1.0" encoding="utf-8"?>
<!-- Generator: Adobe Illustrator 17.0.0, SVG Export Plug-In . SVG Version: 6.00 Build 0)  -->
<!DOCTYPE svg PUBLIC "-//W3C//DTD SVG 1.1//EN" "http://www.w3.org/Graphics/SVG/1.1/DTD/svg11.dtd">
<svg version="1.1" xmlns="http://www.w3.org/2000/svg" xmlns:xlink="http://www.w3.org/1999/xlink" x="0px" y="0px" width="520px"
	 height="100px" viewBox="0 0 520 100" enable-background="new 0 0 520 100" xml:space="preserve">
<g id="Layer_2">
</g>
<g id="Layer_1">
	<g>
		<path fill="#FFFFFF" d="M0.607,69.903c-0.064,0-0.111-0.105-0.143-0.318c-0.033-0.212-0.048-0.44-0.048-0.684
			c0-0.303,0.015-0.574,0.048-0.818c0.031-0.243,0.078-0.365,0.143-0.365h5.604c0.442,0,0.665-0.126,0.665-0.38V2.833
			c0-0.252-0.223-0.38-0.665-0.38H0.607c-0.064,0-0.111-0.11-0.143-0.333C0.431,1.899,0.417,1.662,0.417,1.408
			c0-0.316,0.015-0.602,0.048-0.855c0.031-0.252,0.078-0.38,0.143-0.38h17.1c0.253,0,0.38,0.096,0.38,0.285v66.88
			c0,0.254,0.157,0.38,0.476,0.38h5.51c0.063,0,0.126,0.122,0.19,0.365c0.062,0.244,0.095,0.516,0.095,0.818
			c0,0.243-0.033,0.472-0.095,0.684c-0.064,0.213-0.128,0.318-0.19,0.318H0.607z"/>
		<path fill="#FFFFFF" d="M29.676,69.903c-0.063,0-0.111-0.105-0.143-0.318c-0.032-0.212-0.047-0.44-0.047-0.684
			c0-0.303,0.015-0.574,0.047-0.818c0.031-0.243,0.079-0.365,0.143-0.365h5.7c0.442,0,0.665-0.126,0.665-0.381V32
			c0-0.254-0.223-0.382-0.665-0.382h-5.7c-0.063,0-0.111-0.105-0.143-0.317c-0.032-0.213-0.047-0.441-0.047-0.685
			c0-0.303,0.015-0.574,0.047-0.818c0.031-0.243,0.079-0.365,0.143-0.365h17.101c0.252,0,0.38,0.096,0.38,0.285v37.619
			c0,0.255,0.221,0.381,0.665,0.381h5.604c0.063,0,0.096,0.122,0.096,0.362c0,0.242,0,0.514,0,0.813c0,0.242,0,0.484,0,0.725
			c0,0.189-0.033,0.285-0.096,0.285H29.676z M46.492,12.38c-1.33,1.362-2.914,2.042-4.75,2.042c-2.027,0-3.705-0.68-5.035-2.042
			c-1.33-1.361-1.995-2.993-1.995-4.893c0-2.026,0.665-3.736,1.995-5.13c1.33-1.393,3.008-2.09,5.035-2.09
			c1.836,0,3.42,0.697,4.75,2.09c1.33,1.394,1.995,3.104,1.995,5.13C48.487,9.387,47.822,11.019,46.492,12.38z"/>
		<path fill="#E8A956" d="M71.096,69.38c-1.14,1.171-2.629,1.757-4.465,1.757c-1.647,0-3.009-0.586-4.085-1.757
			c-1.078-1.172-1.615-2.675-1.615-4.513c0-1.646,0.537-3.008,1.615-4.085c1.076-1.076,2.438-1.615,4.085-1.615
			c1.836,0,3.325,0.539,4.465,1.615c1.14,1.077,1.71,2.438,1.71,4.085C72.806,66.706,72.236,68.208,71.096,69.38z"/>
		<path fill="#FFFFFF" d="M113.275,68.335c-3.168,1.614-6.555,2.422-10.165,2.422c-2.85,0-5.543-0.538-8.075-1.614
			c-2.533-1.076-4.75-2.565-6.649-4.466c-1.9-1.899-3.405-4.132-4.513-6.697c-1.108-2.564-1.662-5.304-1.662-8.218
			c0-2.912,0.554-5.652,1.662-8.217c1.107-2.565,2.612-4.798,4.513-6.698c1.899-1.899,4.116-3.403,6.649-4.512
			c2.532-1.107,5.226-1.663,8.075-1.663c2.343,0,4.496,0.38,6.46,1.141c1.963,0.76,3.673,1.726,5.13,2.897
			c1.456,1.172,2.597,2.455,3.42,3.847c0.822,1.395,1.235,2.725,1.235,3.99c0,1.521-0.443,2.629-1.33,3.325
			c-0.888,0.697-1.964,1.045-3.229,1.045c-1.458,0-2.565-0.348-3.325-1.045c-0.76-0.696-1.141-1.551-1.141-2.565
			c0-0.632,0.063-1.123,0.19-1.472c0.126-0.348,0.269-0.681,0.428-0.998c0.157-0.316,0.3-0.68,0.428-1.093
			c0.126-0.411,0.189-0.997,0.189-1.757c0-1.9-0.76-3.214-2.28-3.942c-1.52-0.728-3.578-1.093-6.175-1.093
			c-1.204,0-2.249,0.128-3.135,0.38c-0.888,0.254-1.743,0.793-2.565,1.615c-0.634,0.634-1.156,1.377-1.567,2.232
			c-0.412,0.854-0.745,1.933-0.997,3.229c-0.254,1.299-0.444,2.867-0.57,4.703c-0.128,1.838-0.189,4.054-0.189,6.649
			c0,2.598,0.062,4.814,0.189,6.65c0.126,1.838,0.316,3.405,0.57,4.702c0.252,1.299,0.585,2.375,0.997,3.23
			c0.411,0.854,0.934,1.6,1.567,2.232c0.822,0.824,1.678,1.362,2.565,1.615c0.886,0.254,1.931,0.38,3.135,0.38
			c3.61,0,6.919-0.744,9.928-2.232c3.007-1.487,5.304-3.404,6.888-5.748c0.063-0.063,0.269,0.096,0.617,0.476
			c0.348,0.38,0.459,0.634,0.333,0.76C118.975,64.551,116.441,66.72,113.275,68.335z"/>
		<path fill="#FFFFFF" d="M167.471,57.885c-1.109,2.564-2.629,4.797-4.561,6.697c-1.933,1.9-4.18,3.405-6.745,4.513
			c-2.564,1.107-5.305,1.662-8.217,1.662c-2.851,0-5.543-0.555-8.075-1.662c-2.534-1.107-4.75-2.612-6.65-4.513
			c-1.899-1.9-3.405-4.133-4.513-6.697c-1.108-2.565-1.662-5.304-1.662-8.218c0-2.912,0.554-5.652,1.662-8.218
			c1.107-2.564,2.613-4.797,4.513-6.697c1.9-1.899,4.116-3.403,6.65-4.513c2.532-1.107,5.225-1.662,8.075-1.662
			c2.912,0,5.652,0.555,8.217,1.662c2.565,1.109,4.813,2.613,6.745,4.513c1.932,1.9,3.451,4.133,4.561,6.697
			c1.107,2.565,1.662,5.306,1.662,8.218C169.133,52.582,168.579,55.32,167.471,57.885z M156.593,38.885
			c-0.508-2.691-1.394-4.67-2.66-5.938c-0.76-0.822-1.631-1.361-2.612-1.615c-0.982-0.252-2.106-0.38-3.372-0.38
			c-1.078,0-2.106,0.128-3.088,0.38c-0.982,0.254-1.885,0.793-2.707,1.615c-1.204,1.268-2.06,3.246-2.565,5.938
			c-0.508,2.692-0.76,6.317-0.76,10.877c0,2.598,0.063,4.814,0.189,6.65c0.127,1.838,0.316,3.405,0.57,4.702
			c0.252,1.299,0.602,2.375,1.045,3.23c0.442,0.854,0.95,1.6,1.521,2.232c0.822,0.824,1.725,1.362,2.707,1.615
			c0.981,0.254,2.01,0.38,3.088,0.38c1.266,0,2.39-0.126,3.372-0.38c0.981-0.253,1.853-0.791,2.612-1.615
			c0.633-0.633,1.155-1.378,1.567-2.232c0.411-0.855,0.761-1.932,1.046-3.23c0.284-1.297,0.489-2.864,0.617-4.702
			c0.126-1.836,0.189-4.053,0.189-6.65C157.353,45.203,157.099,41.578,156.593,38.885z"/>
		<path fill="#FFFFFF" d="M204.853,69.903c-0.064,0-0.111-0.105-0.143-0.318c-0.033-0.212-0.048-0.44-0.048-0.684
			c0-0.303,0.015-0.574,0.048-0.818c0.031-0.243,0.078-0.365,0.143-0.365h5.51c0.316,0,0.475-0.126,0.475-0.38V40.643
			c0-3.356-0.443-5.811-1.33-7.363c-0.888-1.551-2.217-2.327-3.989-2.327c-2.914,0-5.258,0.729-7.03,2.185
			c-1.773,1.458-3.23,3.99-4.37,7.601v26.6c0,0.254,0.19,0.38,0.57,0.38h5.604c0.063,0,0.096,0.122,0.096,0.362
			c0,0.242,0,0.514,0,0.813c0,0.242,0,0.484,0,0.725c0,0.189-0.033,0.285-0.096,0.285h-23.75c-0.063,0-0.111-0.105-0.143-0.318
			c-0.032-0.212-0.047-0.44-0.047-0.684c0-0.303,0.015-0.574,0.047-0.818c0.031-0.243,0.079-0.365,0.143-0.365h5.511
			c0.506,0,0.76-0.126,0.76-0.381V32c0-0.254-0.254-0.382-0.76-0.382h-5.511c-0.063,0-0.111-0.105-0.143-0.317
			c-0.032-0.213-0.047-0.441-0.047-0.685c0-0.303,0.015-0.574,0.047-0.818c0.031-0.243,0.079-0.365,0.143-0.365h17.287
			c0.191,0,0.288,0.096,0.288,0.285v6.271c0.442-1.33,1.076-2.47,1.9-3.42c0.822-0.95,1.741-1.71,2.755-2.28
			c1.012-0.57,2.104-0.997,3.277-1.282c1.171-0.285,2.327-0.428,3.468-0.428c5.192,0,9.262,1.379,12.207,4.134
			c2.945,2.757,4.418,6.676,4.418,11.757v22.868c0,0.255,0.221,0.381,0.665,0.381h5.51c0.063,0,0.109,0.122,0.143,0.365
			c0.031,0.244,0.047,0.516,0.047,0.818c0,0.243-0.016,0.472-0.047,0.684c-0.033,0.213-0.08,0.318-0.143,0.318H204.853z"/>
		<path fill="#FFFFFF" d="M264.322,62.16c-0.697,1.743-1.71,3.247-3.04,4.513c-1.33,1.268-2.944,2.266-4.845,2.993
			c-1.9,0.727-4.022,1.092-6.365,1.092c-1.647,0-2.914-0.123-3.8-0.365c-0.888-0.244-1.647-0.534-2.28-0.869
			c-0.634-0.336-1.203-0.625-1.71-0.869c-0.508-0.243-1.173-0.366-1.995-0.366c-0.888,0-1.679,0.212-2.375,0.634
			c-0.697,0.422-1.108,0.784-1.234,1.085c0,0.06-0.128,0.105-0.38,0.137c-0.254,0.028-0.508,0.045-0.761,0.045
			c-0.254,0-0.475-0.016-0.665-0.045c-0.189-0.029-0.284-0.076-0.284-0.135l0.475-14.546c0-0.063,0.095-0.095,0.285-0.095
			c0.252,0,0.506,0,0.76,0c0.252,0,0.475,0,0.665,0c0.252,0,0.38,0.032,0.38,0.095c0,1.9,0.285,3.643,0.855,5.226
			c0.569,1.583,1.425,2.961,2.564,4.132c1.141,1.173,2.501,2.09,4.085,2.755c1.583,0.665,3.388,0.998,5.415,0.998
			c2.851,0,5.035-0.602,6.556-1.805c1.52-1.203,2.279-3.23,2.279-6.08c0-1.141-0.223-2.058-0.665-2.756
			c-0.443-0.695-1.125-1.313-2.042-1.852c-0.919-0.538-2.123-1.013-3.61-1.426c-1.488-0.411-3.277-0.869-5.367-1.377
			c-3.8-0.76-6.714-2.01-8.74-3.753c-2.027-1.741-3.04-4.259-3.04-7.553c0-2.152,0.38-4.068,1.14-5.747
			c0.761-1.678,1.741-3.071,2.945-4.18c1.202-1.107,2.565-1.948,4.085-2.518c1.521-0.57,3.071-0.855,4.655-0.855
			c1.393,0,2.484,0.08,3.277,0.237c0.791,0.159,1.456,0.333,1.995,0.522c0.537,0.19,0.997,0.365,1.378,0.523
			c0.38,0.158,0.886,0.237,1.52,0.237c0.506,0,0.981-0.237,1.425-0.713c0.442-0.475,0.665-0.774,0.665-0.902
			c0.063-0.063,0.205-0.11,0.428-0.143c0.221-0.031,0.459-0.048,0.713-0.048c0.315,0,0.584,0.017,0.807,0.048
			c0.222,0.032,0.333,0.08,0.333,0.143v11.78c0,0.063-0.128,0.111-0.38,0.143c-0.254,0.032-0.539,0.047-0.855,0.047
			c-0.254,0-0.491-0.015-0.712-0.047c-0.223-0.031-0.333-0.079-0.333-0.143c0-1.33-0.317-2.565-0.95-3.705
			c-0.634-1.141-1.441-2.138-2.422-2.993c-0.983-0.854-2.075-1.52-3.277-1.994c-1.204-0.476-2.408-0.713-3.61-0.713
			c-2.154,0-3.896,0.443-5.225,1.33c-1.33,0.888-1.995,2.629-1.995,5.225c0,1.141,0.252,2.043,0.76,2.708
			c0.506,0.665,1.25,1.234,2.232,1.71c0.981,0.475,2.2,0.919,3.657,1.33c1.456,0.412,3.135,0.871,5.035,1.377
			c1.582,0.38,3.135,0.919,4.655,1.615c1.52,0.697,2.881,1.553,4.085,2.565c1.202,1.014,2.152,2.185,2.85,3.515
			c0.696,1.33,1.045,2.788,1.045,4.37C265.367,58.597,265.018,60.418,264.322,62.16z"/>
		<path fill="#FFFFFF" d="M304.507,69.903c-0.254,0-0.38-0.096-0.38-0.285v-6.271c-0.444,1.33-1.078,2.471-1.9,3.421
			c-0.824,0.949-1.758,1.71-2.803,2.279c-1.045,0.57-2.153,0.998-3.325,1.283c-1.172,0.284-2.327,0.427-3.467,0.427
			c-5.081,0-9.106-1.266-12.075-3.8c-2.971-2.532-4.455-6.332-4.455-11.4V32.092c0-0.252-0.254-0.38-0.76-0.38h-5.605
			c-0.063-0.442-0.095-0.791-0.095-1.045c0-0.316,0.031-0.728,0.095-1.235h17.382c0.192,0,0.288,0.096,0.288,0.285v29.07
			c0,3.42,0.459,5.906,1.378,7.457c0.917,1.553,2.2,2.328,3.848,2.328c3.04,0,5.43-0.744,7.172-2.232
			c1.741-1.487,3.183-4.038,4.323-7.647V32.092c0-0.252-0.223-0.38-0.665-0.38h-5.415c-0.128,0-0.207-0.109-0.237-0.332
			c-0.033-0.222-0.048-0.459-0.048-0.713c0-0.316,0.015-0.601,0.048-0.854c0.03-0.253,0.109-0.381,0.237-0.381h17.1
			c0.19,0,0.285,0.096,0.285,0.285v37.619c0,0.255,0.221,0.381,0.665,0.381h5.51c0.063,0,0.095,0.122,0.095,0.362
			c0,0.242,0,0.514,0,0.813c0,0.242,0,0.484,0,0.725c0,0.189-0.032,0.285-0.095,0.285H304.507z"/>
		<path fill="#FFFFFF" d="M325.88,69.903c-0.063,0-0.111-0.105-0.143-0.318c-0.032-0.212-0.047-0.44-0.047-0.684
			c0-0.303,0.015-0.574,0.047-0.818c0.031-0.243,0.079-0.365,0.143-0.365h5.605c0.442,0,0.665-0.126,0.665-0.38V2.833
			c0-0.252-0.223-0.38-0.665-0.38h-5.605c-0.063,0-0.111-0.11-0.143-0.333c-0.032-0.221-0.047-0.458-0.047-0.712
			c0-0.316,0.015-0.602,0.047-0.855c0.031-0.252,0.079-0.38,0.143-0.38h17.101c0.252,0,0.38,0.096,0.38,0.285v66.88
			c0,0.254,0.157,0.38,0.475,0.38h5.51c0.063,0,0.127,0.122,0.19,0.365c0.063,0.244,0.095,0.516,0.095,0.818
			c0,0.243-0.032,0.472-0.095,0.684c-0.063,0.213-0.128,0.318-0.19,0.318H325.88z"/>
		<path fill="#FFFFFF" d="M378.083,68.478c-1.933,1.52-4.418,2.279-7.458,2.279c-3.548,0-6.065-0.776-7.553-2.327
			c-1.488-1.551-2.232-3.879-2.232-6.982V32.092c0-0.252-0.223-0.38-0.665-0.38h-7.029c-0.064,0-0.111-0.109-0.143-0.332
			c-0.033-0.222-0.048-0.459-0.048-0.713c0-0.316,0.015-0.601,0.048-0.854c0.031-0.253,0.078-0.381,0.143-0.381h7.029
			c0.442,0,0.665-0.126,0.665-0.38v-7.979c1.076-0.063,2.121-0.411,3.135-1.045c1.013-0.633,1.915-1.378,2.708-2.232
			c0.791-0.855,1.439-1.741,1.947-2.66c0.507-0.918,0.855-1.725,1.045-2.423c0.126-0.126,0.822-0.126,2.09,0v16.34
			c0,0.254,0.316,0.38,0.95,0.38h8.266c0.062,0,0.095,0.128,0.095,0.381c0,0.254,0,0.538,0,0.854c0,0.254,0,0.508,0,0.76
			c0,0.19-0.033,0.285-0.095,0.285h-8.266c-0.634,0-0.95,0.128-0.95,0.38v32.585c0,0.888,0.3,1.567,0.903,2.043
			c0.601,0.475,1.377,0.712,2.327,0.712c1.33,0,2.454-0.569,3.372-1.71c0.918-1.14,1.694-2.596,2.328-4.369
			c-0.064,0-0.017,0.047,0.143,0.142c0.157,0.096,0.332,0.207,0.522,0.333c0.189,0.128,0.347,0.237,0.475,0.332
			c0.126,0.096,0.19,0.176,0.19,0.238C381.328,64.931,380.014,66.958,378.083,68.478z"/>
		<path fill="#FFFFFF" d="M386.775,69.903c-0.063,0-0.111-0.105-0.143-0.318c-0.032-0.212-0.048-0.44-0.048-0.684
			c0-0.303,0.016-0.574,0.048-0.818c0.031-0.243,0.079-0.365,0.143-0.365h5.7c0.442,0,0.665-0.126,0.665-0.381V32
			c0-0.254-0.223-0.382-0.665-0.382h-5.7c-0.063,0-0.111-0.105-0.143-0.317c-0.032-0.213-0.048-0.441-0.048-0.685
			c0-0.303,0.016-0.574,0.048-0.818c0.031-0.243,0.079-0.365,0.143-0.365h17.1c0.253,0,0.38,0.096,0.38,0.285v37.619
			c0,0.255,0.222,0.381,0.665,0.381h5.605c0.063,0,0.095,0.122,0.095,0.362c0,0.242,0,0.514,0,0.813c0,0.242,0,0.484,0,0.725
			c0,0.189-0.032,0.285-0.095,0.285H386.775z M403.589,12.38c-1.329,1.362-2.913,2.042-4.75,2.042c-2.027,0-3.704-0.68-5.034-2.042
			c-1.33-1.361-1.995-2.993-1.995-4.893c0-2.026,0.665-3.736,1.995-5.13c1.33-1.393,3.007-2.09,5.034-2.09
			c1.837,0,3.421,0.697,4.75,2.09c1.33,1.394,1.995,3.104,1.995,5.13C405.584,9.387,404.919,11.019,403.589,12.38z"/>
		<path fill="#FFFFFF" d="M444.724,69.903c-0.064,0-0.111-0.105-0.143-0.318c-0.033-0.212-0.048-0.44-0.048-0.684
			c0-0.303,0.015-0.574,0.048-0.818c0.031-0.243,0.078-0.365,0.143-0.365h5.51c0.316,0,0.475-0.126,0.475-0.38V40.643
			c0-3.356-0.443-5.811-1.33-7.363c-0.888-1.551-2.217-2.327-3.989-2.327c-2.914,0-5.258,0.729-7.03,2.185
			c-1.773,1.458-3.23,3.99-4.37,7.601v26.6c0,0.254,0.19,0.38,0.57,0.38h5.604c0.063,0,0.096,0.122,0.096,0.362
			c0,0.242,0,0.514,0,0.813c0,0.242,0,0.484,0,0.725c0,0.189-0.033,0.285-0.096,0.285h-23.75c-0.063,0-0.111-0.105-0.143-0.318
			c-0.032-0.212-0.047-0.44-0.047-0.684c0-0.303,0.015-0.574,0.047-0.818c0.031-0.243,0.079-0.365,0.143-0.365h5.511
			c0.506,0,0.76-0.126,0.76-0.381V32c0-0.254-0.254-0.382-0.76-0.382h-5.511c-0.063,0-0.111-0.105-0.143-0.317
			c-0.032-0.213-0.047-0.441-0.047-0.685c0-0.303,0.015-0.574,0.047-0.818c0.031-0.243,0.079-0.365,0.143-0.365h17.287
			c0.191,0,0.288,0.096,0.288,0.285v6.271c0.442-1.33,1.076-2.47,1.9-3.42c0.822-0.95,1.741-1.71,2.755-2.28
			c1.012-0.57,2.104-0.997,3.277-1.282c1.171-0.285,2.327-0.428,3.468-0.428c5.192,0,9.262,1.379,12.207,4.134
			c2.945,2.757,4.418,6.676,4.418,11.757v22.868c0,0.255,0.221,0.381,0.665,0.381h5.51c0.063,0,0.109,0.122,0.143,0.365
			c0.031,0.244,0.047,0.516,0.047,0.818c0,0.243-0.016,0.472-0.047,0.684c-0.033,0.213-0.08,0.318-0.143,0.318H444.724z"/>
		<path fill="#FFFFFF" d="M518.681,36.938c-0.602,0.697-1.314,1.045-2.137,1.045c-1.078,0-1.869-0.238-2.375-0.713
			c-0.508-0.475-0.76-0.997-0.76-1.567c0-0.633,0.125-1.06,0.379-1.282c0.252-0.222,0.381-0.585,0.381-1.093
			c0-0.506-0.16-0.886-0.477-1.14c-0.316-0.253-0.729-0.381-1.234-0.381c-0.379,0-0.76,0-1.141,0c-0.379,0-0.791,0.096-1.234,0.285
			c-0.443,0.19-0.902,0.556-1.377,1.093c-0.475,0.539-0.998,1.347-1.568,2.423c1.076,1.268,1.789,2.518,2.139,3.752
			c0.348,1.235,0.521,2.74,0.521,4.513c0,2.09-0.428,4.054-1.281,5.89c-0.855,1.838-2.029,3.453-3.516,4.846
			c-1.488,1.394-3.246,2.486-5.273,3.277c-2.027,0.793-4.18,1.188-6.459,1.188c-2.725,0-5.115-0.476-7.172-1.425
			c-2.061-0.95-3.563-1.837-4.514-2.66c-0.76,0.569-1.377,1.299-1.852,2.185c-0.477,0.888-0.713,2.059-0.713,3.516
			c0,1.203,0.143,2.137,0.428,2.802s0.727,1.173,1.33,1.521c0.602,0.349,1.377,0.555,2.326,0.617c0.951,0.064,2.09,0.095,3.42,0.095
			h13.111c5.572,0,10.07,1.363,13.49,4.085c3.42,2.723,5.129,6.745,5.129,12.065c0,2.977-0.775,5.572-2.326,7.79
			c-1.553,2.216-3.516,4.085-5.891,5.605c-2.375,1.52-4.988,2.659-7.838,3.42c-2.85,0.76-5.605,1.14-8.266,1.14
			c-3.42,0-6.523-0.349-9.309-1.045c-2.789-0.698-5.195-1.632-7.221-2.803c-2.027-1.173-3.596-2.55-4.703-4.133
			c-1.108-1.583-1.662-3.263-1.662-5.034c0-1.33,0.269-2.613,0.808-3.848c0.538-1.235,1.267-2.375,2.185-3.42
			s2.01-1.948,3.277-2.708s2.629-1.33,4.086-1.71c-2.725-0.634-4.939-1.885-6.65-3.752c-1.709-1.868-2.564-4.005-2.564-6.413
			c0-2.85,0.775-5.145,2.326-6.888c1.553-1.741,3.5-3.34,5.844-4.797c-1.078-1.267-1.965-2.708-2.66-4.322
			c-0.697-1.615-1.045-3.31-1.045-5.083c0-2.09,0.428-4.068,1.283-5.938c0.854-1.867,2.041-3.499,3.563-4.893
			c1.52-1.393,3.291-2.484,5.318-3.277c2.027-0.791,4.182-1.188,6.461-1.188c2.785,0,5.256,0.508,7.41,1.52
			c2.152,1.015,3.957,2.408,5.414,4.181c0.887-1.646,2.043-3.008,3.469-4.085c1.424-1.076,3.117-1.615,5.082-1.615
			c0.949,0,1.74,0.159,2.375,0.475c0.633,0.318,1.141,0.729,1.52,1.235c0.381,0.508,0.648,1.062,0.809,1.662
			c0.156,0.604,0.236,1.188,0.236,1.758C519.583,35.166,519.283,36.242,518.681,36.938z M510.796,82.138
			c-0.475-1.241-1.234-2.338-2.279-3.291c-1.045-0.956-2.375-1.735-3.99-2.338c-1.615-0.605-3.596-0.906-5.938-0.906h-12.92
			c0.125,0,0.063,0-0.191,0c-0.189,0-0.412,0-0.664,0c-0.254,0-0.508,0-0.76,0c-0.189,0-0.223,0-0.096,0
			c-1.078,0.635-1.947,1.239-2.611,1.813c-0.666,0.571-1.205,1.239-1.615,2.002c-0.414,0.764-0.699,1.638-0.855,2.625
			c-0.158,0.984-0.238,2.209-0.238,3.672c0,2.545,0.316,4.596,0.951,6.154c0.631,1.559,1.582,2.768,2.85,3.627
			c1.266,0.857,2.85,1.431,4.75,1.717c1.9,0.285,4.146,0.43,6.744,0.43c2.344,0,4.576-0.208,6.697-0.621
			c2.123-0.414,3.99-1.099,5.605-2.051c1.615-0.955,2.898-2.163,3.848-3.625c0.951-1.466,1.426-3.245,1.426-5.344
			C511.509,84.667,511.271,83.377,510.796,82.138z M499.302,36.225c-0.35-1.867-0.967-3.245-1.854-4.133
			c-0.508-0.506-1.109-0.838-1.805-0.997c-0.697-0.157-1.488-0.237-2.375-0.237c-0.76,0-1.488,0.08-2.186,0.237
			c-0.697,0.159-1.299,0.491-1.805,0.997c-0.887,0.888-1.553,2.266-1.994,4.133c-0.445,1.869-0.666,4.387-0.666,7.553
			c0,3.609,0.221,6.255,0.666,7.933c0.441,1.679,1.107,2.93,1.994,3.752c0.506,0.57,1.107,0.936,1.805,1.093
			c0.697,0.159,1.426,0.237,2.186,0.237c0.887,0,1.678-0.078,2.375-0.237c0.695-0.157,1.297-0.522,1.805-1.093
			c0.822-0.822,1.426-2.073,1.805-3.752c0.381-1.678,0.57-4.323,0.57-7.933C499.824,40.612,499.648,38.094,499.302,36.225z"/>
	</g>
</g>
</svg>
