<svg width="1523" height="415" viewBox="0 0 1523 415" fill="none" xmlns="http://www.w3.org/2000/svg">
<path d="M0 36C0 16.1178 16.1178 0 36 0H1487C1506.88 0 1523 16.1178 1523 36V379C1523 398.882 1506.88 415 1487 415H36C16.1177 415 0 398.882 0 379V36Z" fill="#17002E"/>
<path d="M192.23 335.84L203.94 331.764L206.403 305.728C207.758 291.408 208.878 271.387 208.894 261.236L208.918 242.78H181.336H156.348L156.348 262.5C156.348 271 156.205 289.644 156.205 295.322C156.205 301 156.205 305.728 156.205 305.728V317C156.205 317 146 317 142.5 317C139 317 129.286 316.785 128.5 316C124.542 312.048 126.33 148.139 126.956 136.57C127.582 125 140.423 124.793 145.5 128C150.553 131.192 151.423 138.279 153.164 152.957L154 174.5C161.441 175.368 197 174.5 205.027 173.612L205.027 129.567C205.027 129.567 205.027 89.5001 205.027 87.172C205.027 84.844 190.5 81.6424 187.5 80.5001C169.5 73.5001 116 78.5001 102 81.5001C88 84.5001 81 87.172 77.5 91.5001C74 95.8282 73 116 72.5 123C72 130 71.4693 167.894 71.8041 216.457C72.4437 309.171 72.693 310.649 91.5632 333.116C98.2596 341.089 171.458 343.07 192.23 335.84ZM356.794 278.892C356.794 278.892 355.5 237.908 355.5 232.5C355.5 227.092 346 217.5 342.5 214C339 210.5 331.565 206 331.5 201.5C331.442 197.5 332.5 197.5 341.5 196.5C350.5 195.5 355.913 180.785 357.874 144.736C360.8 90.9485 346.05 79.5936 273.254 79.5936H228.378V207.812V336.03H255.618H282.858V277.749C282.5 224 280 213.5 298.002 226.267C307 233.5 306.498 238.603 308.751 284.36L310 338.5C310 338.5 326.5 338.5 330.5 338.5C334.5 338.5 350.169 339.258 355.585 335.652C356.7 332.047 356.794 313.792 356.794 278.892ZM263.401 147.823V110.677H276.5C303.5 110 308 188.5 280 187H263.401L263.401 147.823ZM1129.45 335.424L1141.89 330.932L1143.82 289.77C1146.16 239.772 1147.85 245 1117.33 245H1092.27L1092.27 280.113V317.446L1081.61 314.774C1066.13 310.894 1066.1 310.757 1063.02 228.818C1059.67 139.71 1061.26 126.218 1075.06 126.218C1085.77 126.218 1086.73 127.984 1090.21 153.983L1092.62 172.034L1106.47 173.649C1114.09 174.537 1125.39 174.52 1131.59 173.612L1142.86 171.961V129.567V87.172L1132.16 82.4223C1107.5 71.4805 1016.73 80.7809 1012.93 94.6375C1008.23 111.791 1007.49 180.433 1010 241C1010 241 1010 293.727 1010 302C1010 310.274 1026 339.915 1037.5 339.915C1049 339.915 1075.48 339.915 1075.48 339.915C1098.32 339.915 1122.61 337.894 1129.45 335.424ZM1287.13 329.691L1294.47 322.367L1296.76 217.493C1299.83 77.3523 1300.62 78.9313 1227.66 78.9534C1164.81 78.9776 1167.03 74.2295 1165.83 210.999L1164.9 316.658L1173.84 326.165C1188.26 341.487 1272.69 344.114 1287.13 329.691ZM1207.81 225.252C1204.87 147.025 1204.33 148.83 1229.93 150.316L1249.87 151.473L1248.51 215.583C1247.01 286.259 1245 289.405 1222.5 289.405H1210.23L1207.81 225.252ZM1351.53 336.03C1355.91 336.03 1356.88 320.685 1356.88 251.846C1356.88 205.545 1357.83 168.603 1358.98 169.753C1360.13 170.903 1366 207.945 1372.02 252.068C1384.72 345.076 1380.78 337.001 1413.44 337.001C1447.89 337.001 1445.45 345.701 1449.68 207.814C1453.91 69.989 1456.05 79.7425 1421.48 79.6531L1398.52 79.5924L1401.13 119.418C1406.33 198.638 1408.51 252.453 1406.44 250.55C1405.27 249.482 1398.77 222.381 1391.99 190.326C1385.21 158.272 1377.02 120.243 1373.8 105.819L1367.93 79.5924H1345.5H1323.06L1320.4 150.932C1318.94 190.168 1318.94 248.904 1320.41 281.456L1323.09 340.64L1334.63 338.335C1340.98 337.066 1348.59 336.029 1351.53 336.029L1351.53 336.03ZM403.86 335.059C404.063 334.525 406.252 316.603 408.724 295.233C411.197 273.864 411.895 256.466 413.5 257C415.105 257.534 425.186 258.322 432.677 258.322H446.296L446.35 288.434C446.379 304.995 447.478 322.555 448.793 327.454L451.183 336.362L476.952 335.225L502.722 334.087L501.635 279.692C500.482 222.042 493.695 103.019 490.723 88.3357L488.953 79.5936H444.539C405.571 79.5936 399.886 80.4277 398.187 86.393C394.478 99.41 380.085 217.921 375.065 276.778L370.011 336.03H386.751C395.958 336.03 403.657 335.593 403.86 335.059ZM415.165 177.709C416.567 147.611 413.996 135.72 417.5 136C420.175 136.214 429.544 135.68 432.5 136C439.671 136.778 446.296 166.849 446.296 195.933L446.296 221.5H430H412.5L415.165 177.709ZM577.242 285.52L574.682 235.01H602.161H629.64L628.443 218.497L627.246 201.984L602.925 200.827L578.604 199.67V170.835V142.001L604.871 142.852L631.138 143.703L632.268 111.648L633.398 79.5936L581.68 79.6543C553.235 79.6907 527.999 80.9983 525.601 82.5683C520.74 85.75 517.863 174.078 519.337 274.836L520.233 336.031H550.018H579.802L577.242 285.52ZM730.368 233.067V130.104H743.988C756.242 130.104 757.612 129.032 757.651 119.419C757.673 113.542 758.787 102.131 760.123 94.0598L762.552 79.3855L702.682 80.4612L642.812 81.537L641.661 103.353L640.509 125.169L656.797 127.769L673.084 130.37L671.166 233.2L669.248 336.031H699.808H730.368V233.067Z" fill="white"/>
<path d="M980.721 266.781C982.142 228.305 982.142 169.863 980.721 136.912L978.138 77L952.943 78.0357C939.085 78.6052 926.336 79.9416 924.613 81.0051C922.889 82.0687 921.863 139.55 922.332 208.741L923.184 334.543L944.824 335.958C956.726 336.736 969.091 337.23 972.301 337.056C977.16 336.792 978.571 325.019 980.721 266.781ZM827.486 296.033L825.613 257.179H842.023H858.433L860.845 271.749C862.171 279.763 863.276 297.247 863.299 310.603L863.342 334.887H883.332H903.322L900.616 297.004C897.108 247.902 883.539 107.391 880.73 91.0779L878.555 78.4503H832.377H786.198L784.013 93.0206C778.178 131.912 773.926 188.382 771.58 258.15L769 334.887H799.18H829.36L827.486 296.033ZM824.428 172.113V125.901L839.463 129.712L854.497 133.522L856.946 159.41C858.293 173.649 859.408 192.73 859.423 201.812L859.452 218.325H841.941H824.43L824.428 172.113Z" fill="#00DD73"/>
</svg>
